<svg width="13" height="20" viewBox="0 0 13 20" fill="none" xmlns="http://www.w3.org/2000/svg">
<path d="M7.59932 8.59215L7.49617 7.30447L6.26205 7.40634L4.97644 7.28721L4.87311 8.5749C4.87311 8.5749 5.33791 9.17198 6.24913 9.18342V9.18433C6.2535 9.18433 6.25768 9.18397 6.26205 9.18397C6.26641 9.18397 6.2706 9.18433 6.27496 9.18433V9.18342C7.18619 9.17198 7.59932 8.59215 7.59932 8.59215Z" fill="#F3A65E"/>
<path d="M6.20755 4.46304C5.44222 4.51461 4.71128 4.39421 4.28123 4.274C3.96724 4.18629 3.69054 3.99434 3.5632 3.89646C3.56338 3.90064 3.56338 3.90428 3.56356 3.90845C3.45259 3.86705 3.31161 3.8714 3.20264 4.06807C3.02218 4.39421 3.20264 5.02943 3.4435 5.22701C3.55501 5.31835 3.65798 5.38299 3.73766 5.42712C3.85845 6.01712 4.05419 6.57062 4.37091 6.90948C5.1819 7.77695 5.92121 7.962 6.13515 7.99904C6.17535 8.00594 6.19918 8.0083 6.19918 8.0083C6.19918 8.0083 6.20955 8.00721 6.22483 8.00522V4.46177C6.21919 4.46231 6.21319 4.46267 6.20755 4.46304Z" fill="#F9CB88"/>
<path d="M9.26955 4.09395C9.14257 3.86442 8.97175 3.89656 8.85623 3.95794C8.85623 3.95721 8.85623 3.95648 8.85623 3.95558C8.86678 3.74366 8.87096 3.55226 8.87224 3.38755C8.29301 3.4344 6.96883 3.53845 6.22479 3.5735C5.95719 3.58621 5.76454 3.59003 5.70869 3.57877C5.47984 3.53319 3.91426 3.33253 3.55079 3.27551C3.55024 3.44548 3.55279 3.65685 3.56316 3.89656C3.6905 3.99444 4.03342 4.26792 4.34231 4.37197C5.07562 4.61912 5.7016 4.70374 6.22479 4.70338V8.00531C6.37033 7.98624 7.17768 7.84206 8.04961 6.90957C8.3545 6.58343 8.54788 6.0559 8.66994 5.48733C8.75253 5.4461 8.88388 5.37147 9.02869 5.25289C9.26954 5.05531 9.45019 4.4201 9.26955 4.09395Z" fill="#F7BC77"/>
<path d="M3.5973 4.30734L3.6748 4.93402C3.6748 4.93402 3.4554 4.81816 3.41684 4.52616C3.39355 4.35092 3.45541 4.2387 3.5973 4.30734Z" fill="#F3A65E"/>
<path d="M8.88811 4.2908L8.81079 4.91766C8.81079 4.91766 9.03 4.80163 9.06875 4.5098C9.09204 4.33457 9.03 4.22216 8.88811 4.2908Z" fill="#F3A65E"/>
<path d="M3.62137 4.48144C3.77509 4.48707 4.04415 4.14186 4.03305 3.74181C4.02214 3.34302 4.2106 3.42202 4.2106 3.42202L3.44946 3.39296C3.44946 3.39296 3.45128 4.25136 3.62137 4.48144Z" fill="#7D3F1A"/>
<path d="M8.85846 4.51074C8.70474 4.51619 8.38075 4.15645 8.39185 3.7564C8.40276 3.3578 8.21429 3.43679 8.21429 3.43679L8.97544 3.40756C8.97544 3.40756 9.012 4.38653 8.85846 4.51074Z" fill="#7D3F1A"/>
<path d="M7.69529 2.62596C7.25814 2.34359 6.83791 2.24825 6.78443 0.010103C6.71967 0.00647116 6.65236 0.00356174 6.58196 0.00156426C6.48645 -0.000796556 6.0051 -0.000617743 5.89194 0.00319576C5.8028 0.00610113 5.71967 0.0111861 5.63908 0.0171788C5.58469 2.24825 5.165 2.34377 4.72822 2.62596C4.21066 2.96028 3.57595 2.61743 3.57595 2.61743L3.55194 2.59782C3.56067 2.80284 3.58268 2.93504 3.58268 2.93504C3.58268 2.93504 3.69875 3.17965 4.33073 3.57879C4.89176 3.93308 6.01656 3.82848 6.26615 3.80324C6.51592 3.82848 7.55594 3.93944 8.11679 3.58533C8.74896 3.186 8.86502 2.9414 8.86502 2.9414C8.86502 2.9414 8.88867 2.79757 8.89667 2.57748L8.84774 2.61743C8.84774 2.61743 8.21303 2.96028 7.69529 2.62596Z" fill="#F8C92A"/>
<path d="M8.47814 0.894069C8.06991 0.321502 7.72372 0.0643702 6.78448 0.0100737C6.83797 2.24822 7.2582 2.34356 7.69535 2.62594C8.21308 2.96025 8.84779 2.6174 8.84779 2.6174L8.89673 2.57745C8.91219 2.15361 8.86853 1.44176 8.47814 0.894069Z" fill="#F2AE0D"/>
<path d="M8.88045 2.78044C8.72564 3.01215 8.55791 3.25694 8.10639 3.38569C7.03981 3.68986 5.40855 3.68986 4.34179 3.38569C3.89045 3.25694 3.72273 3.01215 3.56791 2.78044C3.47768 2.79333 3.27557 2.78897 3.27557 2.78897L3.28412 3.66897L4.04526 3.79773C4.04526 3.79773 4.36726 4.24209 5.80186 4.30419C5.9212 4.30928 6.50606 4.30837 6.64941 4.29983C8.01416 4.21939 8.4031 3.79773 8.4031 3.79773L9.16424 3.66897L9.17279 2.78897C9.17279 2.78897 8.97068 2.79333 8.88045 2.78044Z" fill="#F2AE0D"/>
<path d="M6.5428 7.21014H5.87207C5.81495 7.21014 5.76874 7.16402 5.76874 7.10718C5.76874 7.05016 5.81495 7.00404 5.87207 7.00404H6.5428C6.59992 7.00404 6.64594 7.05016 6.64594 7.10718C6.64594 7.16402 6.59992 7.21014 6.5428 7.21014Z" fill="#E88D45"/>
<path d="M5.20026 0.072767C5.20917 0.377301 5.21063 0.957671 5.11803 1.42019C5.06582 1.68096 4.91865 1.60487 4.87644 1.48593C4.76093 1.1587 4.69871 0.525112 4.69289 0.234198C4.39891 0.37566 4.1837 0.58704 3.96959 0.887397C3.571 1.44671 3.53371 2.17744 3.5519 2.59765L3.57592 2.61708C3.57592 2.61708 4.21063 2.96011 4.72818 2.6258C5.16497 2.3436 5.58465 2.24808 5.63904 0.0170119C5.47732 0.0289972 5.33215 0.0475254 5.20026 0.072767Z" fill="#F2AE0D"/>
<path d="M5.11801 1.42029C5.21061 0.957772 5.20915 0.377402 5.20024 0.0728683C5.00486 0.110458 4.83913 0.163841 4.69287 0.234299C4.69869 0.525213 4.76091 1.1588 4.87643 1.48603C4.91863 1.60498 5.0658 1.68106 5.11801 1.42029Z" fill="#F8C92A"/>
<path d="M7.37759 1.42029C7.28499 0.957772 7.28645 0.377402 7.29554 0.0728683C7.49074 0.110458 7.65647 0.163841 7.80291 0.234299C7.79691 0.525213 7.73487 1.1588 7.61917 1.48603C7.57715 1.60498 7.4298 1.68106 7.37759 1.42029Z" fill="#F8C92A"/>
<path d="M10.3733 13.9011L12.3387 13.8673C12.2106 12.3791 11.9787 11.106 11.5086 10.5194C11.3511 10.3226 11.0438 10.086 10.6682 9.83935C10.5663 9.77234 10.459 9.70461 10.3484 9.63669L9.49061 12.1699L8.46405 11.8236L9.39056 9.08755C8.91303 8.82841 8.44932 8.59379 8.10495 8.42437C8.00035 8.3728 7.9083 8.32812 7.82862 8.28963C7.68745 8.51099 6.49534 9.1315 6.2352 9.24608C6.23047 9.24554 6.22647 9.24426 6.22174 9.2439V11.7254V12.7857V13.8415V15.3095V16.3653V19.9966C6.22265 19.9966 6.22374 19.9966 6.22465 19.9966C7.66907 19.9966 9.09767 19.7085 10.3787 19.2383C10.3513 18.7999 10.3733 13.9011 10.3733 13.9011Z" fill="#B0B0AE"/>
<path d="M9.49055 12.17L10.3483 9.63674C10.0443 9.45043 9.71431 9.26339 9.39049 9.0876L8.46399 11.8237L9.49055 12.17Z" fill="#4E63AB"/>
<path d="M6.21246 9.24608C5.9525 9.1315 4.76021 8.51099 4.61905 8.28963C4.53937 8.32812 4.4475 8.3728 4.34271 8.42437C4.00216 8.59198 3.54464 8.82315 3.07257 9.07902L4.00198 11.8236L2.97542 12.1699L2.11459 9.62761C1.99852 9.69843 1.8861 9.76925 1.7795 9.83935C1.40384 10.086 1.09658 10.3226 0.939038 10.5194C0.468963 11.106 0.237019 12.3791 0.109131 13.8673H1.7795V15.3095V16.3653V19.1388C3.15297 19.6901 4.65179 19.9966 6.22301 19.9966C6.2241 19.9966 6.22501 19.9966 6.22592 19.9966V16.3653V15.3095V13.8415V12.7857V11.7254V9.2439C6.22119 9.24426 6.21719 9.24554 6.21246 9.24608Z" fill="#CDCCCA"/>
<path d="M4.0022 11.8237L3.07278 9.07907C2.74934 9.25449 2.41934 9.44135 2.11481 9.62766L2.97564 12.17L4.0022 11.8237Z" fill="#6F80C5"/>
<path d="M6.22614 9.01948C5.42315 9.01221 4.91233 8.15 4.91233 8.15C4.91233 8.15 4.80136 8.20176 4.61926 8.28965C4.77462 8.53335 5.30072 9.39029 6.22614 9.3941V9.01948Z" fill="#959595"/>
<path d="M0.293177 14.3952C0.293177 14.7429 0.21568 17.7819 0.245151 18.3935C0.7356 18.6774 1.55005 19.0656 2.12927 19.2712L2.13291 14.3229L0.293177 14.3952Z" fill="#F9CB88"/>
<path d="M2.10998 13.8674H0.109253C0.0917889 14.0698 0.0761426 14.2761 0.0623169 14.4855H2.10998V13.8674Z" fill="#B0B0AE"/>
<path d="M6.22174 9.01948C7.02472 9.01221 7.53555 8.15 7.53555 8.15C7.53555 8.15 7.64652 8.20176 7.82862 8.28965C7.67326 8.53335 7.14715 9.39029 6.22174 9.3941V9.01948Z" fill="#7A7B7C"/>
<path d="M12.1556 14.3952C12.1556 14.7429 12.2307 17.791 12.2012 18.4026C11.7101 18.693 10.8893 19.0849 10.2966 19.2848L10.3513 14.4052L12.1556 14.3952Z" fill="#F9CB88"/>
<path d="M10.3626 13.8336H12.339C12.3562 14.0361 12.3719 14.2762 12.3859 14.4855H10.3626V13.8336Z" fill="#959595"/>
<path d="M9.84631 15.0096L10.0879 11.9666L11.1126 10.2606C11.1126 10.2606 10.7466 11.8973 10.4172 12.3502C10.3879 13.1759 10.4026 15.448 10.4026 15.448C10.4026 15.448 10.183 15.5649 9.84631 15.0096Z" fill="#959595"/>
<path d="M2.62228 15.0096L2.38088 11.9666L1.35614 10.2606C1.35614 10.2606 1.72216 11.8973 2.05143 12.3502C2.08072 13.1759 2.06616 15.448 2.06616 15.448C2.06616 15.448 2.28574 15.5649 2.62228 15.0096Z" fill="#B0B0AE"/>
<path d="M3.06868 12.669C3.10743 14.5625 2.52184 15.1514 2.22677 15.3273C2.12854 15.386 2.0625 15.3989 2.0625 15.3989C2.0625 15.3989 2.09743 17.8076 2.07906 19.2547C2.53094 19.4296 3.05886 19.5835 3.72868 19.7343C4.66483 19.9449 5.63627 19.9999 6.21531 19.9972L6.21622 12.1311C5.05613 12.1471 3.87349 12.327 3.06868 12.669Z" fill="#6F80C5"/>
<path d="M10.404 15.3989C10.404 15.3989 10.3379 15.386 10.2397 15.3273C9.94464 15.1514 9.35905 14.5625 9.3978 12.669C8.70451 12.2894 7.47366 12.1138 6.21606 12.1311V19.9999C7.74126 19.9698 8.96265 19.7561 10.2031 19.3191C10.2643 19.2977 10.3258 19.2777 10.3863 19.2554C10.3676 17.8097 10.404 15.3989 10.404 15.3989Z" fill="#4E63AB"/>
<path d="M4.19098 13.0552C4.19098 13.233 4.04672 13.3771 3.86862 13.3771C3.69052 13.3771 3.54608 13.233 3.54608 13.0552C3.54608 12.8774 3.69052 12.7332 3.86862 12.7332C4.04672 12.7332 4.19098 12.8774 4.19098 13.0552Z" fill="#F8C92A"/>
<path d="M8.27539 13.0552C8.27539 13.233 8.41965 13.3771 8.59775 13.3771C8.77584 13.3771 8.92029 13.233 8.92029 13.0552C8.92029 12.8774 8.77584 12.7332 8.59775 12.7332C8.41965 12.7332 8.27539 12.8774 8.27539 13.0552Z" fill="#F2AE0D"/>
<path d="M3.61432 14.3539C3.61432 14.3539 3.66689 16.5627 3.94959 16.9936C4.43659 17.7354 6.16844 17.7023 6.19209 17.7018V17.704C6.19209 17.704 6.20319 17.7042 6.21992 17.7042V14.3548L3.61432 14.3539Z" fill="#ABB3DD"/>
<path d="M8.43645 16.9959C8.71915 16.565 8.7719 14.3561 8.7719 14.3561L6.21979 14.355V17.7043C6.43845 17.7056 7.98129 17.6892 8.43645 16.9959Z" fill="#6F80C5"/>
</svg>
