<svg width="13" height="21" viewBox="0 0 13 21" fill="none" xmlns="http://www.w3.org/2000/svg">
<path d="M7.89315 9.01942L7.78487 7.66771L6.48937 7.77465L5.13983 7.6496L5.03156 9.00132C5.03156 9.00132 5.51927 9.62809 6.47581 9.6401V9.64105C6.48059 9.64105 6.48479 9.64067 6.48937 9.64067C6.49396 9.64067 6.49835 9.64105 6.50293 9.64105V9.6401C7.45947 9.62809 7.89315 9.01942 7.89315 9.01942Z" fill="#F3A65E"/>
<path d="M6.43222 4.68493C5.62884 4.73907 4.86154 4.61269 4.4101 4.48649C4.0805 4.39442 3.79004 4.19293 3.65637 4.09018C3.65656 4.09457 3.65656 4.09838 3.65675 4.10276C3.54026 4.0593 3.39227 4.06388 3.27788 4.27032C3.08844 4.61269 3.27788 5.27949 3.53071 5.48689C3.64778 5.58278 3.75606 5.65064 3.8397 5.69696C3.96631 6.3163 4.17178 6.89732 4.50425 7.25303C5.35556 8.16364 6.13164 8.35788 6.3564 8.39677C6.39842 8.40402 6.42343 8.40649 6.42343 8.40649C6.42343 8.40649 6.43432 8.40535 6.45036 8.40326V4.6836C6.44444 4.68398 6.43833 4.68455 6.43222 4.68493Z" fill="#F9CB88"/>
<path d="M9.64658 4.2974C9.51328 4.05645 9.33397 4.09019 9.21271 4.15462C9.21271 4.15367 9.21271 4.1531 9.21271 4.15233C9.22378 3.92968 9.22818 3.72876 9.22971 3.55587C8.62149 3.60486 7.23146 3.71428 6.45042 3.75107C6.1697 3.76441 5.96728 3.76841 5.90884 3.7566C5.66861 3.70875 4.02499 3.49811 3.64344 3.43844C3.64287 3.61648 3.64554 3.83876 3.65643 4.09019C3.7901 4.19294 4.15007 4.48002 4.47452 4.58924C5.24429 4.84868 5.90121 4.93751 6.45042 4.93713V8.40326C6.60319 8.38324 7.45069 8.23189 8.36598 7.25303C8.68603 6.91067 8.88902 6.3569 9.01735 5.76006C9.10386 5.71679 9.24192 5.63844 9.39393 5.51396C9.64658 5.30656 9.8362 4.63976 9.64658 4.2974Z" fill="#F7BC77"/>
<path d="M3.69203 4.52141L3.77337 5.17926C3.77337 5.17926 3.54307 5.05764 3.50259 4.75112C3.47814 4.56717 3.54307 4.44936 3.69203 4.52141Z" fill="#F3A65E"/>
<path d="M9.24626 4.50414L9.1651 5.16199C9.1651 5.16199 9.39521 5.04037 9.43589 4.73404C9.46033 4.55008 9.39521 4.43209 9.24626 4.50414Z" fill="#F3A65E"/>
<path d="M3.71763 4.70421C3.87899 4.71012 4.16143 4.34775 4.14997 3.9278C4.13833 3.50919 4.33616 3.5923 4.33616 3.5923L3.53717 3.56161C3.53717 3.56161 3.53908 4.46269 3.71763 4.70421Z" fill="#5E6061"/>
<path d="M9.21496 4.73498C9.0536 4.74089 8.71349 4.36307 8.72514 3.94313C8.7366 3.52471 8.53876 3.60763 8.53876 3.60763L9.33775 3.57693C9.33775 3.57693 9.37633 4.60459 9.21496 4.73498Z" fill="#5E6061"/>
<path d="M7.99398 2.75648C7.5351 2.45986 7.09416 2.35998 7.03783 0.0105286C6.96985 0.00671625 6.89919 0.00366211 6.82528 0.00156498C6.72522 -0.000913143 6.21974 -0.000525475 6.10096 0.00328684C6.00739 0.00633717 5.92012 0.0116749 5.83552 0.0179653C5.77842 2.35998 5.33806 2.46025 4.87937 2.75648C4.33607 3.10742 3.6698 2.74751 3.6698 2.74751L3.64459 2.72693C3.65395 2.94214 3.67687 3.08091 3.67687 3.08091C3.67687 3.08091 3.7987 3.33769 4.4623 3.75668C5.05104 4.12859 6.23177 4.01879 6.49377 3.99229C6.75597 4.01879 7.84771 4.13526 8.43645 3.76354C9.10005 3.34436 9.22188 3.08759 9.22188 3.08759C9.22188 3.08759 9.2467 2.93661 9.25511 2.70577L9.20374 2.74751C9.20374 2.74751 8.53746 3.10742 7.99398 2.75648Z" fill="#F68B29"/>
<path d="M8.81589 0.938356C8.38737 0.337507 8.02397 0.0675845 7.03802 0.0105879C7.09436 2.36003 7.53529 2.45992 7.99418 2.75653C8.53766 3.10747 9.20393 2.74757 9.20393 2.74757L9.2553 2.70583C9.27153 2.26072 9.2257 1.51347 8.81589 0.938356Z" fill="#E77018"/>
<path d="M9.23784 2.91862C9.07533 3.16186 8.89926 3.41881 8.42529 3.55397C7.30567 3.87326 5.5933 3.87326 4.47368 3.55397C3.99971 3.41881 3.82364 3.16186 3.66113 2.91862C3.56641 2.93215 3.35425 2.92758 3.35425 2.92758L3.36322 3.85134L4.16222 3.98649C4.16222 3.98649 4.50022 4.45295 6.00635 4.51815C6.13143 4.52348 6.74538 4.52253 6.89586 4.51357C8.32866 4.42913 8.73675 3.98649 8.73675 3.98649L9.53574 3.85134L9.54472 2.92758C9.54472 2.92758 9.33256 2.93215 9.23784 2.91862Z" fill="#E77018"/>
<path d="M6.78428 7.56854H6.0802C6.02024 7.56854 5.97192 7.52013 5.97192 7.46027C5.97192 7.4006 6.02024 7.35218 6.0802 7.35218H6.78428C6.84425 7.35218 6.89256 7.4006 6.89256 7.46027C6.89256 7.52013 6.84425 7.56854 6.78428 7.56854Z" fill="#E88D45"/>
<path d="M5.375 0.0765431C5.38436 0.39622 5.38607 1.00546 5.28868 1.49079C5.23388 1.76452 5.07939 1.68484 5.03527 1.55998C4.91382 1.21647 4.8487 0.551391 4.8424 0.246011C4.53381 0.394507 4.3079 0.616389 4.08313 0.931682C3.66473 1.51881 3.62558 2.28607 3.64467 2.72699L3.66988 2.74757C3.66988 2.74757 4.33616 3.10747 4.87945 2.75653C5.33814 2.4603 5.77851 2.36004 5.83561 0.0180247C5.66584 0.030606 5.51345 0.0500464 5.375 0.0765431Z" fill="#E77018"/>
<path d="M5.28875 1.49071C5.38614 1.00538 5.38442 0.396144 5.37506 0.0764663C5.16997 0.115926 4.996 0.171972 4.84247 0.245934C4.84877 0.551314 4.91389 1.2164 5.03534 1.5599C5.07945 1.68476 5.23394 1.76444 5.28875 1.49071Z" fill="#F68B29"/>
<path d="M7.66037 1.49071C7.56317 1.00538 7.5647 0.396144 7.57425 0.0764663C7.77934 0.115926 7.95312 0.171972 8.10685 0.245934C8.10055 0.551314 8.03543 1.2164 7.91397 1.5599C7.86986 1.68476 7.71518 1.76444 7.66037 1.49071Z" fill="#F68B29"/>
<path d="M2.18924 13.2061L1.21419 10.3404C0.943401 12.2869 1.59344 13.2873 1.59344 13.2873L1.35321 19.9042C1.59821 20.0142 1.84647 20.1183 2.09949 20.2126C2.11878 18.6936 2.18924 13.2061 2.18924 13.2061Z" fill="#B0B0AE"/>
<path d="M5.33094 10.5568C5.33094 10.5568 4.8163 9.78629 4.65379 8.92124C4.65417 8.91933 4.65608 8.91705 4.65646 8.91514C4.41986 8.99272 3.81526 9.19174 3.19616 9.40409C2.81576 9.53448 2.43116 9.66963 2.12428 9.78401C1.94077 9.85263 1.78475 9.91382 1.67475 9.96205C0.997786 10.2594 0.347747 10.5568 0.32063 11.476C0.294659 12.3561 0.0803974 18.6953 0.0622559 19.2336C0.477411 19.4818 0.908795 19.7047 1.35336 19.9043L1.59359 13.2873C1.59359 13.2873 0.943555 12.2869 1.21434 10.3404L2.1894 13.2061C2.1894 13.2061 2.11893 18.6936 2.09965 20.2127C2.16324 20.2365 2.2274 20.2592 2.29157 20.2819C3.58993 20.7421 4.98587 20.9958 6.44121 21V12.7497V9.40161C6.05069 9.86292 5.33094 10.5568 5.33094 10.5568Z" fill="#CDCCCA"/>
<path d="M7.55545 10.5568C7.55545 10.5568 8.0701 9.78633 8.23261 8.92127C8.23223 8.91936 8.23032 8.91708 8.22994 8.91517C8.46654 8.99275 9.07113 9.19177 9.69024 9.40412C10.0706 9.53451 10.4552 9.66966 10.7621 9.78404C10.9456 9.85266 11.1016 9.91385 11.2116 9.96208C11.8886 10.2595 12.5387 10.5568 12.5658 11.476C12.5917 12.3561 12.806 18.6954 12.8241 19.2337C12.409 19.4819 11.9776 19.7047 11.533 19.9043L11.2928 13.2873C11.2928 13.2873 11.9428 12.2869 11.6721 10.3405L10.697 13.2061C10.697 13.2061 10.7675 18.6936 10.7867 20.2127C10.7232 20.2366 10.659 20.2592 10.5948 20.2819C9.29647 20.7421 7.90052 20.9958 6.44519 21V12.7498V9.40164C6.83571 9.86296 7.55545 10.5568 7.55545 10.5568Z" fill="#B0B0AE"/>
<path d="M6.45673 9.37366L5.81128 9.95029L6.07633 10.7787H6.45673V9.37366Z" fill="#E65A5D"/>
<path d="M6.45081 9.37366L7.09607 9.95029L6.83101 10.7787H6.45081V9.37366Z" fill="#DA454E"/>
<path d="M8.2299 8.91504C8.19343 8.77322 7.85103 8.5092 7.85103 8.5092C7.85103 8.5092 7.46529 9.03476 6.42721 9.34643C6.42702 9.34643 6.42683 9.34624 6.42664 9.34624V9.38131C6.42683 9.38112 6.42702 9.38074 6.42721 9.38055C6.81334 9.84167 7.55561 10.5567 7.55561 10.5567C7.55561 10.5567 8.07007 9.7862 8.23258 8.92114C8.23219 8.91924 8.23048 8.91695 8.2299 8.91504Z" fill="#CDCCCA"/>
<path d="M6.44899 9.34299C6.04014 9.22099 5.0603 8.51549 5.0603 8.51549C5.0603 8.51549 4.69327 8.77322 4.65661 8.91504C4.65622 8.91695 4.65431 8.91924 4.65393 8.92114C4.81644 9.7862 5.33109 10.5567 5.33109 10.5567C5.33109 10.5567 6.0556 9.87198 6.44899 9.41066V9.34299Z" fill="#E9E8E7"/>
<path d="M10.6969 13.2061L11.672 10.3404C11.9427 12.2869 11.2927 13.2873 11.2927 13.2873L11.5329 19.9042C11.2879 20.0142 11.0397 20.1183 10.7867 20.2126C10.7674 18.6936 10.6969 13.2061 10.6969 13.2061Z" fill="#959595"/>
<path d="M6.45679 20.2046L6.45374 20.2085L6.45679 20.2122V20.2046Z" fill="#E65A5D"/>
<path d="M6.45081 20.2122L6.45386 20.2085L6.45081 20.2046V20.2122Z" fill="#E33521"/>
<path d="M6.45652 11.2311H6.45081V20.2051L6.45366 20.2087L6.45652 20.2051V11.2311Z" fill="#E33521"/>
<path d="M6.06479 10.7212L5.99279 11.2311L4.98145 18.3946L6.45091 20.2051V11.2311V10.7326H6.45378L6.06479 10.7212Z" fill="#DA454E"/>
<path d="M6.4566 20.2051L7.92607 18.3946L6.91472 11.2311L6.84273 10.7212L6.45374 10.7326H6.4566V11.2311V20.2051Z" fill="#DE3332"/>
<path d="M6.45366 10.7326H6.45081V11.2311H6.45652V10.7326H6.45366Z" fill="#E33521"/>
</svg>
