<svg width="14" height="22" viewBox="0 0 14 22" fill="none" xmlns="http://www.w3.org/2000/svg">
<path d="M8.35258 9.45309L8.23907 8.0364L6.88138 8.14848L5.46685 8.01742L5.35333 9.43411C5.35333 9.43411 5.86456 10.091 6.86715 10.1036V10.1048C6.872 10.1048 6.87644 10.1042 6.88138 10.1042C6.88623 10.1042 6.89067 10.1048 6.89553 10.1048V10.1036C7.89811 10.091 8.35258 9.45309 8.35258 9.45309Z" fill="#F3A65E"/>
<path d="M6.82152 4.91016C5.97944 4.9669 5.17518 4.83464 4.70213 4.70238C4.35672 4.60588 4.05228 4.39451 3.9121 4.28702C3.91234 4.29142 3.91242 4.29541 3.91258 4.3C3.79054 4.25445 3.63542 4.25925 3.51558 4.47562C3.31692 4.83464 3.51558 5.53349 3.78053 5.75066C3.9032 5.85136 4.01656 5.92228 4.1042 5.97103C4.23695 6.62014 4.45225 7.22909 4.80078 7.60169C5.69299 8.55608 6.50638 8.75966 6.74186 8.80042C6.78612 8.80821 6.81221 8.81061 6.81221 8.81061C6.81221 8.81061 6.82364 8.80961 6.84045 8.80741V4.90896C6.83419 4.90936 6.82779 4.90976 6.82152 4.91016Z" fill="#F9CB88"/>
<path d="M10.1902 4.50413C10.0504 4.2516 9.86266 4.28716 9.73537 4.35449C9.73545 4.35369 9.75172 3.90817 9.7532 3.72696C9.11586 3.7785 7.65912 3.89298 6.84042 3.93174C6.54613 3.94553 6.33396 3.94972 6.27265 3.93754C6.02091 3.88719 4.29844 3.66643 3.89846 3.60389C3.89783 3.79069 3.90074 4.02344 3.91206 4.28716C4.05225 4.39465 4.35668 4.60583 4.70209 4.70252C5.17515 4.83478 5.9794 4.96704 6.82148 4.9103C6.82775 4.9099 6.83415 4.9095 6.84042 4.9091V8.80756C7.00061 8.78658 7.88881 8.62775 8.84801 7.60184C9.18349 7.24322 9.39622 6.66263 9.53062 6.0371C9.62146 5.99175 9.76601 5.90984 9.92526 5.77918C10.1902 5.56181 10.3889 4.86295 10.1902 4.50413Z" fill="#F7BC77"/>
<path d="M8.4584 2.8889C7.97727 2.57823 7.51514 2.47354 7.45612 0.0111623C7.38499 0.00696659 7.31094 0.00376558 7.23338 0.00176811C7.12847 -0.00102901 6.59879 -0.000627995 6.47426 0.0033679C6.37621 0.00656462 6.28475 0.0121589 6.19608 0.0187516C6.13636 2.47354 5.67463 2.57863 5.19405 2.8889C4.6245 3.25691 3.92626 2.87951 3.92626 2.87951L3.89984 2.85813C3.90961 3.08349 3.93361 3.22894 3.93361 3.22894C3.93361 3.22894 4.06136 3.49805 4.75677 3.93739C5.37385 4.32697 6.6113 4.21189 6.88603 4.18412C7.16075 4.21189 8.30509 4.33396 8.92217 3.94438C9.61751 3.50524 9.74526 3.23613 9.74526 3.23613C9.74526 3.23613 9.7713 3.0779 9.78012 2.83576L9.72626 2.87951C9.72626 2.87951 9.02794 3.25691 8.4584 2.8889Z" fill="#F8C92A"/>
<path d="M9.31955 0.983635C8.87055 0.353705 8.48966 0.0708077 7.45618 0.011271C7.5152 2.47365 7.97733 2.57834 8.45845 2.88901C9.028 3.25702 9.72632 2.87962 9.72632 2.87962L9.78018 2.83586C9.79723 2.36936 9.74916 1.58639 9.31955 0.983635Z" fill="#F2AE0D"/>
<path d="M9.76201 3.05888C9.59175 3.31401 9.40723 3.58312 8.91046 3.72477C7.7369 4.05942 5.94234 4.05942 4.76876 3.72477C4.27208 3.58312 4.08757 3.31401 3.91729 3.05888C3.81792 3.07307 3.59558 3.06827 3.59558 3.06827L3.60503 4.03644L4.44235 4.17809C4.44235 4.17809 4.79668 4.66697 6.37515 4.7353C6.5064 4.74109 7.14976 4.73989 7.30753 4.7307C8.80907 4.642 9.23695 4.17809 9.23695 4.17809L10.0743 4.03644L10.0837 3.06827C10.0837 3.06827 9.86138 3.07307 9.76201 3.05888Z" fill="#F2AE0D"/>
<path d="M8.45654 4.94962C8.15663 4.98898 7.85141 5.02334 7.54824 5.04332C7.31893 5.0583 6.38569 5.0583 6.15638 5.04332C5.85319 5.02334 5.54797 4.98898 5.24807 4.94962C4.88125 4.90127 4.58714 4.86971 4.5837 5.24551C4.58112 5.52621 4.54961 5.85746 4.71003 6.08362C4.79509 6.20349 5.31938 6.24225 5.9012 6.22347C6.1294 6.21607 6.2133 6.08162 6.26896 5.90121C6.34964 5.64009 6.54432 5.50284 6.84257 5.49704V5.49464C6.84617 5.49464 6.84876 5.49584 6.85226 5.49584C6.85586 5.49584 6.85844 5.49464 6.86205 5.49464V5.49704C7.1603 5.50284 7.35498 5.64009 7.43566 5.90121C7.49132 6.08162 7.57522 6.21607 7.8035 6.22347C8.38523 6.24225 8.90953 6.20349 8.99459 6.08362C9.155 5.85746 9.1235 5.52621 9.12092 5.24551C9.11748 4.86971 8.82337 4.90127 8.45654 4.94962Z" fill="#DEE0E1"/>
<path d="M8.9945 6.08342C8.90944 6.20329 8.38514 6.24205 7.80341 6.22327C7.57513 6.21588 7.49123 6.08142 7.43557 5.90102C7.35489 5.63989 7.16021 5.50264 6.86196 5.49685V5.49445C6.85835 5.49445 6.85577 5.49565 6.85217 5.49565C6.84867 5.49565 6.84609 5.49445 6.84248 5.49445V5.49685C6.54423 5.50264 6.34955 5.63989 6.26887 5.90102C6.21321 6.08142 6.12931 6.21588 5.90111 6.22327C5.31929 6.24205 4.795 6.20329 4.70994 6.08342C4.54952 5.85726 4.58103 5.52601 4.58361 5.24531C4.58705 4.86951 4.88116 4.90108 5.24798 4.94942C5.54788 4.98878 5.8531 5.02315 6.15629 5.04312C6.3856 5.05811 7.31884 5.05811 7.54815 5.04312C7.85132 5.02315 8.15654 4.98878 8.45646 4.94942C8.82328 4.90108 9.11739 4.86951 9.12083 5.24531C9.12341 5.52601 9.15491 5.85726 8.9945 6.08342ZM8.47897 4.77701C7.59264 4.89449 6.82693 4.98938 5.22547 4.77701C4.79728 4.72027 4.43146 4.79559 4.42223 5.15161C4.41387 5.47207 4.43044 5.80731 4.5123 6.08082C4.53826 6.16773 4.61987 6.30319 4.84011 6.34314C5.1576 6.40088 5.62247 6.39349 5.95615 6.37052C6.13752 6.35813 6.24283 6.27682 6.30648 6.17073C6.51217 5.82749 6.45166 5.69384 6.85217 5.66127C7.25278 5.69384 7.19227 5.82749 7.39804 6.17073C7.46161 6.27682 7.5669 6.35813 7.74829 6.37052C8.08197 6.39349 8.52416 6.37831 8.84375 6.33315C9.07338 6.30079 9.16618 6.16773 9.19214 6.08082C9.27398 5.80731 9.29055 5.47207 9.28221 5.15161C9.27298 4.79559 8.90716 4.72027 8.47897 4.77701Z" fill="#8A8B8A"/>
<path d="M3.90717 4.74486L3.99231 5.43433C3.99231 5.43433 3.75104 5.30686 3.70843 4.9858C3.68287 4.79301 3.75104 4.66934 3.90717 4.74486Z" fill="#F3A65E"/>
<path d="M9.75866 4.74486L9.67352 5.43433C9.67352 5.43433 9.9148 5.30686 9.95741 4.9858C9.98296 4.79301 9.9148 4.66934 9.75866 4.74486Z" fill="#F3A65E"/>
<path d="M7.19029 7.9325H6.45227C6.38948 7.9325 6.33875 7.88175 6.33875 7.81922C6.33875 7.75648 6.38948 7.70593 6.45227 7.70593H7.19029C7.253 7.70593 7.30381 7.75648 7.30381 7.81922C7.30381 7.88175 7.253 7.9325 7.19029 7.9325Z" fill="#E88D45"/>
<path d="M6.84209 18.0051H1.95007V21.0563C3.46131 21.663 5.11023 22.0001 6.83889 22.0001C6.83989 22.0001 6.84099 22.0001 6.84209 22.0001V18.0051Z" fill="#EF7616"/>
<path d="M6.84209 15.2283H1.95007V16.8434H6.84209V15.2283Z" fill="#EF7616"/>
<path d="M6.84209 12.9003L4.77021 9.26842C4.04079 9.62744 2.82546 10.2504 1.95007 10.8252V14.0667H6.84209V12.9003Z" fill="#EF7616"/>
<path d="M6.84209 14.0666H1.95007V15.2281H6.84209V14.0666Z" fill="#F8C92A"/>
<path d="M6.84209 16.8432H1.95007V18.005H6.84209V16.8432Z" fill="#F8C92A"/>
<path d="M6.8419 10.17C6.83674 10.1704 6.83227 10.172 6.82713 10.1724C6.5409 10.0466 5.22935 9.36389 5.07408 9.12015C4.98635 9.16251 4.88518 9.21186 4.77002 9.2684L6.8419 12.9003V10.17Z" fill="#6F80C5"/>
<path d="M6.84186 9.92316C5.95833 9.91517 5.39637 8.96678 5.39637 8.96678C5.39637 8.96678 5.27434 9.02352 5.07404 9.12022C5.24486 9.38833 5.82363 10.3311 6.84186 10.3353V9.92316Z" fill="#4E63AB"/>
<path d="M0.313585 15.8376C0.313585 16.22 0.228444 19.5635 0.260827 20.2364C0.800413 20.5486 1.36536 20.8215 1.94991 21.0563V18.0051V16.8434L1.94561 15.8232L0.313585 15.8376Z" fill="#F9CB88"/>
<path d="M1.94983 15.2282V10.825C1.53658 11.0964 1.1986 11.3569 1.02519 11.5732C0.508024 12.2186 0.252922 13.6195 0.112122 15.2565H1.94983V15.2282Z" fill="#6F80C5"/>
<path d="M1.94994 15.2567H0.112224C0.0930701 15.4794 0.0758578 15.7064 0.0605469 15.9367H1.94994V15.2567Z" fill="#4E63AB"/>
<path d="M6.83716 18.0051H11.7292V21.0563C10.2179 21.663 8.56904 22.0001 6.84038 22.0001C6.83936 22.0001 6.83826 22.0001 6.83716 22.0001V18.0051Z" fill="#E8621A"/>
<path d="M6.83716 15.2283H11.7292V16.8434H6.83716V15.2283Z" fill="#E8621A"/>
<path d="M6.83716 12.9003L8.90904 9.26842C9.63846 9.62743 10.8538 10.2504 11.7292 10.8252V14.0667H6.83716V12.9003Z" fill="#E8621A"/>
<path d="M6.83716 14.0666H11.7292V15.2281H6.83716V14.0666Z" fill="#F2AE0D"/>
<path d="M6.83716 16.8432H11.7292V18.005H6.83716V16.8432Z" fill="#F2AE0D"/>
<path d="M6.83716 10.17C6.84232 10.1704 6.84678 10.172 6.85195 10.1724C7.13817 10.0466 8.44973 9.36389 8.605 9.12015C8.6927 9.16251 8.79388 9.21186 8.90904 9.2684L6.83716 12.9003V10.17Z" fill="#4E63AB"/>
<path d="M6.83716 9.92316C7.72069 9.91517 8.28265 8.96678 8.28265 8.96678C8.28265 8.96678 8.4047 9.02352 8.605 9.12022C8.43416 9.38833 7.85539 10.3311 6.83716 10.3353V9.92316Z" fill="#375091"/>
<path d="M13.3655 15.8376C13.3655 16.22 13.4507 19.5635 13.4183 20.2364C12.8787 20.5486 12.3137 20.8215 11.7292 21.0563V18.0051V16.8434L11.7334 15.8232L13.3655 15.8376Z" fill="#F9CB88"/>
<path d="M11.7292 15.2282V10.825C12.1425 11.0964 12.4804 11.3569 12.6538 11.5732C13.171 12.2186 13.4261 13.6195 13.5669 15.2565H11.7292V15.2282Z" fill="#6F80C5"/>
<path d="M11.7292 15.2566H13.5669C13.5861 15.4794 13.6033 15.7064 13.6186 15.9367H11.7292V15.2566Z" fill="#375091"/>
<path d="M5.7134 0.0803969C5.72333 0.41544 5.72497 1.05396 5.62301 1.56262C5.56555 1.84951 5.40358 1.76581 5.35728 1.63494C5.23001 1.27493 5.16176 0.578065 5.15518 0.257806C4.83191 0.41344 4.59502 0.646192 4.35947 0.976641C3.92096 1.59179 3.87991 2.39593 3.89992 2.85824L3.92634 2.87962C3.92634 2.87962 4.62458 3.25702 5.19413 2.88901C5.67471 2.57874 6.13644 2.47365 6.19616 0.0188606C6.01824 0.0320466 5.85858 0.0524266 5.7134 0.0803969Z" fill="#F2AE0D"/>
<path d="M5.6228 1.56246C5.72476 1.0538 5.72311 0.415282 5.71319 0.0802379C5.49827 0.121594 5.31602 0.180129 5.15497 0.257647C5.16155 0.577906 5.2298 1.27477 5.35707 1.63479C5.40337 1.76565 5.56534 1.84935 5.6228 1.56246Z" fill="#F8C92A"/>
<path d="M8.10864 1.56246C8.00669 1.0538 8.00833 0.415282 8.01826 0.0802379C8.23319 0.121594 8.41542 0.180129 8.57648 0.257647C8.56991 0.577906 8.50158 1.27477 8.37437 1.63479C8.3281 1.76565 8.1661 1.84935 8.10864 1.56246Z" fill="#F8C92A"/>
</svg>
