<svg width="13" height="21" viewBox="0 0 13 21" fill="none" xmlns="http://www.w3.org/2000/svg">
<path d="M7.823 8.98854L7.7151 7.64147L6.42405 7.74805L5.07915 7.62343L4.97125 8.9705C4.97125 8.9705 5.45729 9.59511 6.41054 9.60708V9.60803C6.4153 9.60803 6.41948 9.60765 6.42405 9.60765C6.42881 9.60765 6.433 9.60803 6.43757 9.60803V9.60708C7.391 9.59511 7.823 8.98854 7.823 8.98854Z" fill="#F3A65E"/>
<path d="M6.36723 4.66902C5.56642 4.72297 4.80177 4.59702 4.35189 4.47126C4.02342 4.37951 3.73396 4.17871 3.60075 4.07631C3.60094 4.08068 3.60094 4.08448 3.60113 4.08885C3.48504 4.04554 3.33755 4.0501 3.22375 4.25583C3.03477 4.59702 3.22375 5.26153 3.47552 5.46822C3.59218 5.56377 3.70008 5.6314 3.78344 5.67756C3.90961 6.29477 4.11438 6.87379 4.44571 7.22828C5.29409 8.13576 6.0675 8.32933 6.29149 8.36809C6.33355 8.37531 6.35829 8.37778 6.35829 8.37778C6.35829 8.37778 6.36914 8.37664 6.38513 8.37455V4.66769C6.37923 4.66807 6.37313 4.66864 6.36723 4.66902Z" fill="#F9CB88"/>
<path d="M9.57051 4.28274C9.43768 4.04262 9.25917 4.07624 9.13813 4.14045C9.13813 4.1395 9.13813 4.13894 9.13813 4.13818C9.14917 3.91629 9.15355 3.71607 9.15507 3.54376C8.54894 3.59259 7.16389 3.70163 6.38535 3.73829C6.1056 3.75159 5.90387 3.75558 5.84564 3.7438C5.60623 3.69612 3.96845 3.4862 3.58802 3.42674C3.58745 3.60417 3.59012 3.82568 3.60097 4.07625C3.73418 4.17864 4.0931 4.46473 4.41624 4.57358C5.18337 4.83213 5.83822 4.92066 6.38535 4.92028V8.37448C6.53778 8.35453 7.38217 8.2037 8.29431 7.22821C8.61327 6.88702 8.81557 6.33516 8.94345 5.74037C9.02966 5.69725 9.16725 5.61917 9.31874 5.49512C9.57051 5.28844 9.75949 4.62392 9.57051 4.28274Z" fill="#F7BC77"/>
<path d="M3.63666 4.50619L3.71754 5.16177C3.71754 5.16177 3.48822 5.04057 3.44769 4.7351C3.42333 4.55178 3.48822 4.43438 3.63666 4.50619Z" fill="#F3A65E"/>
<path d="M9.17146 4.4888L9.09039 5.14438C9.09039 5.14438 9.3199 5.02318 9.36025 4.7179C9.38461 4.53458 9.3199 4.41699 9.17146 4.4888Z" fill="#F3A65E"/>
<path d="M3.66184 4.68825C3.82265 4.69414 4.10392 4.33301 4.0925 3.91451C4.08108 3.49734 4.27805 3.58016 4.27805 3.58016L3.48181 3.54958C3.48181 3.54958 3.48371 4.44756 3.66184 4.68825Z" fill="#7D3F1A"/>
<path d="M9.14012 4.71862C8.97931 4.72451 8.64057 4.348 8.65199 3.92949C8.66341 3.51251 8.46625 3.59515 8.46625 3.59515L9.26268 3.56456C9.26268 3.56456 9.30093 4.58868 9.14012 4.71862Z" fill="#7D3F1A"/>
<path d="M7.92404 2.747C7.46654 2.45141 7.02712 2.35187 6.97098 0.0105009C6.90323 0.00670147 6.83301 0.00365782 6.75917 0.00156832C6.65945 -0.000901222 6.15571 -0.000514984 6.03734 0.00328445C5.94409 0.00632381 5.85711 0.0116434 5.77281 0.0179121C5.7159 2.35187 5.27706 2.45179 4.82013 2.747C4.27852 3.09674 3.61454 2.73807 3.61454 2.73807L3.58942 2.71756C3.59874 2.93203 3.62158 3.07033 3.62158 3.07033C3.62158 3.07033 3.743 3.32622 4.40431 3.74377C4.99103 4.1144 6.16769 4.00497 6.42879 3.97857C6.69008 4.00497 7.77807 4.12104 8.36498 3.7506C9.0261 3.33286 9.14752 3.07698 9.14752 3.07698C9.14752 3.07698 9.17226 2.92652 9.18082 2.69647L9.12944 2.73807C9.12944 2.73807 8.46546 3.09674 7.92404 2.747Z" fill="#F8C92A"/>
<path d="M8.7424 0.935251C8.31554 0.336469 7.95339 0.0674744 6.97064 0.0106738C7.02678 2.35204 7.4662 2.45158 7.9237 2.74718C8.46512 3.09691 9.12911 2.73824 9.12911 2.73824L9.18049 2.69664C9.19647 2.25306 9.1508 1.50839 8.7424 0.935251Z" fill="#F2AE0D"/>
<path d="M9.16316 2.90884C9.00121 3.15124 8.82575 3.40732 8.35359 3.54201C7.23763 3.8602 5.53115 3.8602 4.41539 3.54201C3.94304 3.40732 3.76758 3.15124 3.60563 2.90884C3.51124 2.92233 3.2998 2.91777 3.2998 2.91777L3.30875 3.83836L4.10499 3.97304C4.10499 3.97304 4.44184 4.4379 5.94279 4.50287C6.06763 4.50819 6.67927 4.50724 6.82923 4.49831C8.25711 4.41415 8.66379 3.97304 8.66379 3.97304L9.46004 3.83836L9.46898 2.91777C9.46898 2.91777 9.25755 2.92233 9.16316 2.90884Z" fill="#F2AE0D"/>
<path d="M5.31343 0.0764027C5.32295 0.39498 5.32447 1.00212 5.22741 1.48578C5.17279 1.75858 5.01884 1.67917 4.97487 1.55474C4.85384 1.21241 4.78894 0.549618 4.78266 0.245287C4.47532 0.393273 4.24999 0.614392 4.026 0.9286C3.60904 1.5137 3.57003 2.27833 3.58906 2.71773L3.61418 2.73824C3.61418 2.73824 4.27816 3.09691 4.81978 2.74718C5.2767 2.45196 5.71555 2.35204 5.77245 0.0180857C5.60327 0.0306234 5.4514 0.0499971 5.31343 0.0764027Z" fill="#F2AE0D"/>
<path d="M5.22771 1.48588C5.32476 1.00222 5.32324 0.395079 5.31373 0.0765013C5.10934 0.115825 4.93597 0.171678 4.78296 0.245386C4.78924 0.549716 4.85414 1.21251 4.97517 1.55484C5.01913 1.67926 5.17309 1.75867 5.22771 1.48588Z" fill="#F8C92A"/>
<path d="M7.59097 1.48588C7.4941 1.00222 7.49563 0.395079 7.50514 0.0765013C7.70953 0.115825 7.88271 0.171678 8.03591 0.245386C8.02963 0.549716 7.96473 1.21251 7.8437 1.55484C7.79974 1.67926 7.64578 1.75867 7.59097 1.48588Z" fill="#F8C92A"/>
<path d="M10.7711 12.9201C11.1155 12.4463 11.4984 10.7341 11.4984 10.7341L10.4264 12.5188L9.82239 20.4407C10.0648 20.3718 10.3056 20.2954 10.5471 20.2103C10.6108 20.1879 10.6753 20.167 10.7387 20.1434C10.7387 20.1429 10.7387 20.1421 10.7385 20.1413C10.7627 20.1326 10.7897 20.1216 10.8146 20.1123C10.7935 18.1632 10.7471 13.5965 10.7711 12.9201Z" fill="#375091"/>
<path d="M1.29211 10.7341C1.29211 10.7341 1.67501 12.4463 2.01947 12.9201C2.04592 13.6651 2.03831 18.7513 2.03564 20.1362C2.03964 20.1375 2.04421 20.1394 2.0482 20.141C2.0482 20.1417 2.0482 20.1423 2.0482 20.1429C2.34032 20.2559 2.6627 20.3604 3.03152 20.4611L2.36411 12.5188L1.29211 10.7341Z" fill="#4E63AB"/>
<path d="M12.6648 13.4382C12.5174 12.3558 12.2875 11.4719 11.9131 11.0047C11.7481 10.799 11.4269 10.5511 11.0339 10.2933C10.9271 10.2232 10.8149 10.1523 10.6992 10.0813C10.3814 9.88637 10.0359 9.69071 9.6972 9.50681C9.51469 9.40765 9.33428 9.31229 9.16091 9.22205L6.39157 11.5442L6.38681 11.5387V12.2663V13.3755V14.48V16.0157V17.1202V20.919C6.38567 20.919 6.38472 20.919 6.38377 20.919C6.3811 20.919 6.37863 20.9188 6.37634 20.9188V20.9224C6.47435 20.9205 6.56779 20.9156 6.66352 20.9122C6.99713 20.904 7.32902 20.8825 7.65863 20.8468C8.42538 20.7706 9.13027 20.6377 9.82261 20.4407L10.4266 12.5188L11.4986 10.734C11.4986 10.734 11.1157 12.4462 10.7713 12.92C10.7473 13.5965 10.7937 18.1631 10.8149 20.1122C11.432 19.8812 12.2844 19.4576 12.7543 19.1798C12.7836 18.5725 12.7096 13.7665 12.6648 13.4382Z" fill="#4E63AB"/>
<path d="M6.38213 11.5336L4.13099 8.95496C3.82231 9.10979 3.4594 9.29653 3.08792 9.49809C2.74956 9.6814 2.40415 9.87688 2.08557 10.0718C1.96435 10.1459 1.84655 10.22 1.73503 10.2933C1.34204 10.5511 1.02062 10.799 0.855812 11.0047C0.498796 11.4502 0.273089 12.2745 0.125031 13.2887C0.0690803 13.6711 -0.0239801 18.5531 0.0057078 19.1683C0.424954 19.4108 1.15231 19.7754 1.73503 20.018V20.0216C1.7689 20.0351 1.80392 20.0469 1.83798 20.0602C1.90706 20.0879 1.97234 20.1128 2.03552 20.1361C2.03819 18.7513 2.0458 13.6651 2.01935 12.92C1.67489 12.4462 1.29199 10.734 1.29199 10.734L2.36399 12.5188L3.0314 20.461C3.25995 20.5233 3.50583 20.5841 3.77378 20.6445C4.75329 20.8649 5.76934 20.9224 6.37509 20.9196V20.9188C6.37547 20.9188 6.37585 20.9188 6.37623 20.9188C6.37851 20.9188 6.38099 20.919 6.38365 20.919C6.3846 20.919 6.38555 20.919 6.3867 20.919V17.1202V16.0157V14.48V13.3755V12.2663V11.5387L6.38213 11.5336Z" fill="#6F80C5"/>
<path d="M8.06309 8.6719C7.8726 8.57995 7.78486 8.52505 7.78486 8.52505C7.78486 8.52505 7.22327 9.42588 6.3844 9.43519C6.38516 9.43519 6.38592 9.43538 6.38668 9.43538V9.82729V11.5385L6.39144 11.544L9.16078 9.22186C8.85991 9.06532 8.58073 8.92532 8.35217 8.81266C8.24274 8.7589 8.14645 8.71217 8.06309 8.6719Z" fill="#B0B0AE"/>
<path d="M6.38435 9.43539C5.54547 9.42608 5.01204 8.52601 5.01204 8.52601C5.01204 8.52601 4.89615 8.58015 4.70565 8.6721C4.62211 8.71237 4.526 8.7591 4.41657 8.81286C4.32827 8.85637 4.23254 8.90386 4.13092 8.95496L6.38206 11.5336L6.38663 11.5387V9.82749V9.43558C6.38587 9.43558 6.38511 9.43539 6.38435 9.43539Z" fill="#CDCCCA"/>
<path d="M6.39149 9.43271C5.55128 9.42492 5.0169 8.52314 5.0169 8.52314C5.0169 8.52314 4.90101 8.57728 4.71051 8.66923C4.87284 8.92417 5.42321 9.82044 6.39149 9.82462V9.43271Z" fill="#959595"/>
<path d="M6.38708 9.43271C7.22729 9.42492 7.77556 8.50889 7.77556 8.50889C7.77556 8.50889 7.87757 8.57728 8.06807 8.66923C7.90573 8.92417 7.35537 9.82044 6.38708 9.82462V9.43271Z" fill="#7A7B7C"/>
<path d="M6.38572 11.2592C5.94896 10.7277 4.95499 9.87303 4.841 9.51493C4.7605 9.26266 4.84385 8.73245 5.01608 8.52615C5.03911 8.1994 5.05338 7.94427 5.05338 7.94427C5.05338 7.94427 3.75206 8.7731 3.52788 9.09833C3.27553 9.4644 3.26754 10.0615 3.06848 10.7799C3.63502 10.8257 3.95284 10.7493 4.51938 10.3519C5.23627 10.6278 6.19465 11.5126 6.38572 11.6931V11.2592Z" fill="#ABB3DD"/>
<path d="M6.38391 11.2592C6.82067 10.7277 7.81445 9.87303 7.92863 9.51493C8.00894 9.26266 7.95071 8.71535 7.77829 8.50886C7.75545 8.18211 7.73909 7.95187 7.73909 7.95187C7.73909 7.95187 9.01757 8.7731 9.24175 9.09833C9.49409 9.4644 9.50209 10.0615 9.70115 10.7799C9.13461 10.8257 8.81679 10.7493 8.25025 10.3519C7.53337 10.6278 6.57479 11.5126 6.38391 11.6931V11.2592Z" fill="#6F80C5"/>
<path d="M8.56629 14.3417L7.29523 13.7913V13.4091C7.29523 13.3079 7.37744 13.2258 7.47888 13.2258H9.66873C9.77017 13.2258 9.85257 13.3079 9.85257 13.4091V13.7761L8.56629 14.3417Z" fill="#6F80C5"/>
<path d="M4.09449 14.3417L2.82343 13.7913V13.4091C2.82343 13.3079 2.90564 13.2258 3.00726 13.2258H5.19712C5.29856 13.2258 5.38077 13.3079 5.38077 13.4091V13.7761L4.09449 14.3417Z" fill="#ABB3DD"/>
<path d="M7.33943 7.69193C7.02409 7.8572 6.68992 7.96852 6.36582 7.9575C6.04173 7.96852 5.70755 7.8572 5.39221 7.69193C5.38422 7.4387 5.40496 6.92427 5.60345 6.82073C6.00367 6.61177 6.80429 6.64786 7.12819 6.82073C7.32573 6.92617 7.34742 7.4387 7.33943 7.69193ZM7.67323 7.5392C7.64887 7.34448 7.59368 6.88266 7.47455 6.63722C7.27777 6.23183 6.63358 6.29072 6.37248 6.29604C5.92279 6.30497 5.45368 6.23183 5.25709 6.63722C5.13796 6.88266 5.08258 7.34448 5.05841 7.5392C4.3813 7.09125 3.86481 6.01051 3.86481 6.01051C3.86481 6.01051 3.93008 7.14159 4.46979 7.89596C5.20647 8.92559 6.04097 9.00196 6.36582 8.98752C6.69049 9.00196 7.52498 8.92559 8.26185 7.89596C8.80156 7.14159 8.87235 6.07169 8.87235 6.07169C8.87235 6.07169 8.35034 7.09125 7.67323 7.5392Z" fill="#7D3F1A"/>
</svg>
