<svg width="14" height="20" viewBox="0 0 14 20" fill="none" xmlns="http://www.w3.org/2000/svg">
<path d="M8.35251 8.80446L8.23901 7.58317L6.88132 7.67979L5.46679 7.56681L5.35327 8.78809C5.35327 8.78809 5.8645 9.35439 6.86709 9.36524V9.36627C6.87194 9.36627 6.87638 9.36575 6.88132 9.36575C6.88617 9.36575 6.89061 9.36627 6.89547 9.36627V9.36524C7.89805 9.35439 8.35251 8.80446 8.35251 8.80446Z" fill="#F3A65E"/>
<path d="M6.82146 4.88809C5.97938 4.937 5.17512 4.82299 4.70207 4.70897C4.35666 4.62579 4.05222 4.44357 3.91204 4.3509C3.91228 4.35469 3.91236 4.35814 3.91252 4.3621C3.79047 4.32283 3.63536 4.32696 3.51552 4.51349C3.31686 4.82299 3.51552 5.42545 3.78047 5.61267C3.90313 5.69947 4.0165 5.76061 4.10414 5.80264C4.23689 6.36221 4.45219 6.88717 4.80072 7.20838C5.69293 8.03113 6.50631 8.20663 6.7418 8.24177C6.78605 8.24848 6.81215 8.25055 6.81215 8.25055C6.81215 8.25055 6.82358 8.24969 6.84039 8.2478V4.88706C6.83413 4.8874 6.82772 4.88775 6.82146 4.88809Z" fill="#F9CB88"/>
<path d="M10.1903 4.53814C10.0505 4.32044 9.86272 4.35109 9.73543 4.40914C9.73551 4.40845 9.75178 4.02437 9.75326 3.86816C9.11592 3.9126 7.65918 4.01128 6.84048 4.0447C6.54619 4.05658 6.33402 4.0602 6.27271 4.04969C6.02097 4.00629 4.2985 3.81598 3.89852 3.76207C3.8979 3.9231 3.9008 4.12375 3.91213 4.3511C4.05231 4.44376 4.35674 4.6258 4.70215 4.70916C5.17521 4.82318 5.97946 4.9372 6.82154 4.88828C6.82781 4.88794 6.83421 4.88759 6.84048 4.88725V8.24799C7.00067 8.2299 7.88887 8.09298 8.84807 7.20857C9.18355 6.89942 9.39628 6.39892 9.53068 5.85966C9.62153 5.82056 9.76607 5.74995 9.92532 5.63731C10.1903 5.44993 10.3889 4.84746 10.1903 4.53814Z" fill="#F7BC77"/>
<path d="M8.45846 3.14564C7.97733 2.87782 7.51521 2.78757 7.45618 0.664831C7.38505 0.661214 7.311 0.658455 7.23344 0.656733C7.12853 0.654321 6.59885 0.654667 6.47432 0.658112C6.37627 0.660867 6.28481 0.66569 6.19614 0.671374C6.13642 2.78757 5.67469 2.87817 5.19411 3.14564C4.62456 3.46289 3.92632 3.13755 3.92632 3.13755L3.8999 3.11912C3.90967 3.31339 3.93367 3.43878 3.93367 3.43878C3.93367 3.43878 4.06142 3.67077 4.75683 4.04951C5.37392 4.38536 6.61136 4.28615 6.8861 4.26221C7.16081 4.28615 8.30515 4.39138 8.92223 4.05553C9.61757 3.67697 9.74532 3.44498 9.74532 3.44498C9.74532 3.44498 9.77136 3.30857 9.78018 3.09982L9.72633 3.13755C9.72633 3.13755 9.02801 3.46289 8.45846 3.14564Z" fill="#F8C92A"/>
<path d="M9.31967 1.5032C8.87067 0.960159 8.48978 0.716282 7.4563 0.664958C7.51532 2.7877 7.97745 2.87795 8.45857 3.14577C9.02812 3.46302 9.72644 3.13767 9.72644 3.13767L9.7803 3.09995C9.79735 2.69779 9.74928 2.02282 9.31967 1.5032Z" fill="#F2AE0D"/>
<path d="M9.76213 3.29225C9.59187 3.51219 9.40736 3.74418 8.91058 3.86629C7.73702 4.15478 5.94246 4.15478 4.76888 3.86629C4.27221 3.74418 4.08769 3.51219 3.91741 3.29225C3.81804 3.30448 3.5957 3.30034 3.5957 3.30034L3.60515 4.13497L4.44247 4.25708C4.44247 4.25708 4.7968 4.67853 6.37527 4.73743C6.50652 4.74243 7.14988 4.74139 7.30766 4.73347C8.80919 4.657 9.23707 4.25708 9.23707 4.25708L10.0744 4.13497L10.0839 3.30034C10.0839 3.30034 9.8615 3.30448 9.76213 3.29225Z" fill="#F2AE0D"/>
<path d="M8.45661 4.92209C8.15669 4.95602 7.85147 4.98564 7.5483 5.00286C7.31899 5.01578 6.38575 5.01578 6.15644 5.00286C5.85325 4.98564 5.54803 4.95602 5.24813 4.92209C4.88131 4.88041 4.5872 4.8532 4.58376 5.17716C4.58118 5.41915 4.54968 5.7047 4.71009 5.89967C4.79515 6.00301 5.31945 6.03642 5.90126 6.02023C6.12946 6.01386 6.21336 5.89795 6.26902 5.74242C6.3497 5.51732 6.54438 5.399 6.84263 5.394V5.39193C6.84624 5.39193 6.84882 5.39297 6.85232 5.39297C6.85592 5.39297 6.8585 5.39193 6.86211 5.39193V5.394C7.16036 5.399 7.35504 5.51732 7.43572 5.74242C7.49138 5.89795 7.57528 6.01386 7.80356 6.02023C8.38529 6.03642 8.90959 6.00301 8.99465 5.89967C9.15506 5.7047 9.12356 5.41915 9.12098 5.17716C9.11754 4.8532 8.82343 4.88041 8.45661 4.92209Z" fill="#DEE0E1"/>
<path d="M8.99462 5.89954C8.90956 6.00288 8.38527 6.03629 7.80353 6.0201C7.57525 6.01373 7.49135 5.89782 7.43569 5.7423C7.35501 5.51719 7.16033 5.39887 6.86208 5.39387V5.39181C6.85848 5.39181 6.85589 5.39284 6.85229 5.39284C6.84879 5.39284 6.84621 5.39181 6.8426 5.39181V5.39387C6.54435 5.39887 6.34967 5.51719 6.26899 5.7423C6.21333 5.89782 6.12943 6.01373 5.90123 6.0201C5.31942 6.03629 4.79512 6.00288 4.71006 5.89954C4.54965 5.70458 4.58115 5.41902 4.58373 5.17703C4.58717 4.85307 4.88128 4.88028 5.24811 4.92196C5.548 4.95589 5.85322 4.98551 6.15641 5.00274C6.38572 5.01565 7.31896 5.01565 7.54827 5.00274C7.85145 4.98551 8.15666 4.95589 8.45658 4.92196C8.8234 4.88028 9.11751 4.85307 9.12095 5.17703C9.12353 5.41902 9.15504 5.70458 8.99462 5.89954ZM8.47909 4.77333C7.59276 4.8746 6.82705 4.95641 5.22559 4.77333C4.7974 4.72441 4.43158 4.78934 4.42236 5.09626C4.41399 5.37252 4.43056 5.66152 4.51242 5.8973C4.53838 5.97222 4.62 6.08899 4.84023 6.12344C5.15772 6.17322 5.62259 6.16684 5.95627 6.14704C6.13764 6.13636 6.24296 6.06626 6.3066 5.97481C6.51229 5.67892 6.45179 5.56369 6.85229 5.53562C7.2529 5.56369 7.19239 5.67892 7.39816 5.97481C7.46173 6.06626 7.56702 6.13636 7.74841 6.14704C8.08209 6.16684 8.52429 6.15375 8.84387 6.11483C9.0735 6.08693 9.16631 5.97222 9.19226 5.8973C9.2741 5.66152 9.29067 5.37252 9.28233 5.09626C9.2731 4.78934 8.90728 4.72441 8.47909 4.77333Z" fill="#8A8B8A"/>
<path d="M3.90711 4.7456L3.99225 5.33997C3.99225 5.33997 3.75098 5.23008 3.70837 4.95331C3.68281 4.78711 3.75098 4.68049 3.90711 4.7456Z" fill="#F3A65E"/>
<path d="M9.75873 4.7456L9.67358 5.33997C9.67358 5.33997 9.91486 5.23008 9.95747 4.95331C9.98303 4.78711 9.91486 4.68049 9.75873 4.7456Z" fill="#F3A65E"/>
<path d="M7.19017 7.49359H6.45214C6.38936 7.49359 6.33862 7.44985 6.33862 7.39594C6.33862 7.34186 6.38936 7.29828 6.45214 7.29828H7.19017C7.25288 7.29828 7.30369 7.34186 7.30369 7.39594C7.30369 7.44985 7.25288 7.49359 7.19017 7.49359Z" fill="#E88D45"/>
<path d="M6.84221 16.1769H1.9502V18.8072C3.46144 19.3302 5.11035 19.6208 6.83901 19.6208C6.84001 19.6208 6.84111 19.6208 6.84221 19.6208V16.1769Z" fill="#EF7616"/>
<path d="M6.84221 13.783H1.9502V15.1754H6.84221V13.783Z" fill="#EF7616"/>
<path d="M6.84221 11.7763L4.77033 8.64528C4.04091 8.95478 2.82558 9.49179 1.9502 9.9873V12.7817H6.84221V11.7763Z" fill="#EF7616"/>
<path d="M6.84221 12.7816H1.9502V13.783H6.84221V12.7816Z" fill="#F8C92A"/>
<path d="M6.84221 15.1753H1.9502V16.1768H6.84221V15.1753Z" fill="#F8C92A"/>
<path d="M6.8419 9.42254C6.83674 9.42289 6.83227 9.42427 6.82713 9.42461C6.5409 9.31611 5.22935 8.72759 5.07408 8.51747C4.98635 8.55398 4.88518 8.59653 4.77002 8.64527L6.8419 11.7762V9.42254Z" fill="#6F80C5"/>
<path d="M6.8418 9.20969C5.95827 9.2028 5.39631 8.38522 5.39631 8.38522C5.39631 8.38522 5.27428 8.43414 5.07397 8.51749C5.2448 8.74863 5.82357 9.56139 6.8418 9.565V9.20969Z" fill="#4E63AB"/>
<path d="M0.313524 14.3083C0.313524 14.6379 0.228383 17.5202 0.260766 18.1003C0.800352 18.3695 1.3653 18.6048 1.94985 18.8071V16.1768V15.1753L1.94555 14.2959L0.313524 14.3083Z" fill="#F9CB88"/>
<path d="M1.94977 13.783V9.98719C1.53652 10.2211 1.19854 10.4457 1.02513 10.6322C0.507963 11.1885 0.252861 12.3962 0.112061 13.8074H1.94977V13.783Z" fill="#6F80C5"/>
<path d="M1.94994 13.8075H0.112224C0.0930701 13.9996 0.0758578 14.1952 0.0605469 14.3938H1.94994V13.8075Z" fill="#4E63AB"/>
<path d="M6.83716 16.1769H11.7292V18.8072C10.2179 19.3302 8.56904 19.6208 6.84038 19.6208C6.83936 19.6208 6.83826 19.6208 6.83716 19.6208V16.1769Z" fill="#E8621A"/>
<path d="M6.83716 13.783H11.7292V15.1754H6.83716V13.783Z" fill="#E8621A"/>
<path d="M6.83716 11.7763L8.90904 8.64528C9.63846 8.95478 10.8538 9.49179 11.7292 9.9873V12.7817H6.83716V11.7763Z" fill="#E8621A"/>
<path d="M6.83716 12.7816H11.7292V13.783H6.83716V12.7816Z" fill="#F2AE0D"/>
<path d="M6.83716 15.1753H11.7292V16.1768H6.83716V15.1753Z" fill="#F2AE0D"/>
<path d="M6.83716 9.42254C6.84232 9.42289 6.84678 9.42427 6.85195 9.42461C7.13817 9.31611 8.44973 8.72759 8.605 8.51747C8.6927 8.55398 8.79388 8.59653 8.90904 8.64527L6.83716 11.7762V9.42254Z" fill="#4E63AB"/>
<path d="M6.83716 9.20969C7.72069 9.2028 8.28265 8.38522 8.28265 8.38522C8.28265 8.38522 8.4047 8.43414 8.605 8.51749C8.43416 8.74863 7.85539 9.56139 6.83716 9.565V9.20969Z" fill="#375091"/>
<path d="M13.3656 14.3083C13.3656 14.6379 13.4508 17.5202 13.4184 18.1003C12.8787 18.3695 12.3138 18.6048 11.7292 18.8071V16.1768V15.1753L11.7335 14.2959L13.3656 14.3083Z" fill="#F9CB88"/>
<path d="M11.7292 13.783V9.98719C12.1425 10.2211 12.4805 10.4457 12.6539 10.6322C13.1711 11.1885 13.4262 12.3962 13.567 13.8074H11.7292V13.783Z" fill="#6F80C5"/>
<path d="M11.7292 13.8075H13.567C13.5861 13.9996 13.6033 14.1952 13.6187 14.3938H11.7292V13.8075Z" fill="#375091"/>
<path d="M5.71346 0.724548C5.72339 1.01338 5.72503 1.56383 5.62308 2.00233C5.56561 2.24965 5.40364 2.17749 5.35735 2.06468C5.23007 1.75432 5.16183 1.15357 5.15524 0.877487C4.83197 1.01165 4.59508 1.2123 4.35953 1.49717C3.92102 2.02747 3.87997 2.7207 3.89998 3.11924L3.9264 3.13767C3.9264 3.13767 4.62464 3.46302 5.19419 3.14577C5.67477 2.87829 6.1365 2.7877 6.19622 0.6715C6.0183 0.682867 5.85864 0.700436 5.71346 0.724548Z" fill="#F2AE0D"/>
<path d="M5.62286 2.00218C5.72482 1.56368 5.72318 1.01323 5.71325 0.724399C5.49833 0.76005 5.31608 0.810512 5.15503 0.877337C5.16161 1.15342 5.22986 1.75417 5.35713 2.06453C5.40343 2.17734 5.5654 2.2495 5.62286 2.00218Z" fill="#F8C92A"/>
<path d="M8.1087 2.00218C8.00675 1.56368 8.00839 1.01323 8.01832 0.724399C8.23325 0.76005 8.41548 0.810512 8.57654 0.877337C8.56997 1.15342 8.50164 1.75417 8.37443 2.06453C8.32816 2.17734 8.16616 2.2495 8.1087 2.00218Z" fill="#F8C92A"/>
</svg>
