<svg width="13" height="21" viewBox="0 0 13 21" fill="none" xmlns="http://www.w3.org/2000/svg">
<path d="M7.88367 8.98854L7.77576 7.64147L6.48472 7.74805L5.13982 7.62343L5.03192 8.9705C5.03192 8.9705 5.51796 9.59511 6.47121 9.60708V9.60803C6.47597 9.60803 6.48015 9.60765 6.48472 9.60765C6.48948 9.60765 6.49367 9.60803 6.49824 9.60803V9.60708C7.45167 9.59511 7.88367 8.98854 7.88367 8.98854Z" fill="#F3A65E"/>
<path d="M6.4279 4.66905C5.62709 4.723 4.86244 4.59705 4.41255 4.47129C4.08409 4.37954 3.79463 4.17874 3.66141 4.07634C3.6616 4.08071 3.66161 4.08451 3.6618 4.08888C3.54571 4.04557 3.39822 4.05013 3.28442 4.25586C3.09544 4.59705 3.28442 5.26156 3.53619 5.46825C3.65285 5.5638 3.76075 5.63143 3.84411 5.67759C3.97028 6.2948 4.17505 6.87382 4.50637 7.22831C5.35476 8.13579 6.12817 8.32937 6.35216 8.36812C6.39422 8.37534 6.41896 8.37781 6.41896 8.37781C6.41896 8.37781 6.42981 8.37667 6.44579 8.37458V4.66772C6.43989 4.6681 6.4338 4.66867 6.4279 4.66905Z" fill="#F9CB88"/>
<path d="M9.63094 4.28277C9.4981 4.04265 9.3196 4.07628 9.19856 4.14048C9.19856 4.13953 9.19856 4.13897 9.19856 4.13821C9.2096 3.91632 9.21397 3.7161 9.2155 3.54379C8.60937 3.59262 7.22432 3.70166 6.44577 3.73832C6.16602 3.75162 5.9643 3.75561 5.90606 3.74383C5.66666 3.69615 4.02887 3.48623 3.64845 3.42677C3.64788 3.6042 3.65055 3.82571 3.66139 4.07628C3.79461 4.17867 4.15352 4.46476 4.47666 4.57361C5.24379 4.83216 5.89864 4.92069 6.44577 4.92031V8.37451C6.59821 8.35456 7.4426 8.20373 8.35474 7.22824C8.67369 6.88705 8.87599 6.33519 9.00388 5.7404C9.09009 5.69728 9.22768 5.6192 9.37916 5.49515C9.63094 5.28847 9.81991 4.62396 9.63094 4.28277Z" fill="#F7BC77"/>
<path d="M3.69733 4.50616L3.77821 5.16174C3.77821 5.16174 3.54889 5.04054 3.50836 4.73507C3.484 4.55175 3.54889 4.43435 3.69733 4.50616Z" fill="#F3A65E"/>
<path d="M9.23207 4.48883L9.151 5.14441C9.151 5.14441 9.38051 5.02321 9.42085 4.71793C9.44521 4.53461 9.38051 4.41702 9.23207 4.48883Z" fill="#F3A65E"/>
<path d="M3.72251 4.68828C3.88332 4.69417 4.16459 4.33304 4.15317 3.91454C4.14175 3.49737 4.33872 3.58019 4.33872 3.58019L3.54248 3.54961C3.54248 3.54961 3.54438 4.44759 3.72251 4.68828Z" fill="#7D3F1A"/>
<path d="M9.20067 4.71862C9.03986 4.72451 8.70112 4.348 8.71253 3.92949C8.72395 3.51251 8.52679 3.59515 8.52679 3.59515L9.32323 3.56456C9.32323 3.56456 9.36148 4.58868 9.20067 4.71862Z" fill="#7D3F1A"/>
<path d="M7.98458 2.747C7.52709 2.45141 7.08767 2.35187 7.03152 0.0105009C6.96378 0.00670147 6.89355 0.00365782 6.81972 0.00156832C6.71999 -0.000901222 6.21625 -0.000514984 6.09788 0.00328445C6.00463 0.00632381 5.91766 0.0116434 5.83335 0.0179121C5.77645 2.35187 5.33761 2.45179 4.88068 2.747C4.33907 3.09674 3.67509 2.73807 3.67509 2.73807L3.64996 2.71756C3.65929 2.93203 3.68212 3.07033 3.68212 3.07033C3.68212 3.07033 3.80354 3.32622 4.46486 3.74377C5.05157 4.1144 6.22824 4.00497 6.48934 3.97857C6.75063 4.00497 7.83862 4.12104 8.42552 3.7506C9.08665 3.33286 9.20807 3.07698 9.20807 3.07698C9.20807 3.07698 9.23281 2.92652 9.24137 2.69647L9.18999 2.73807C9.18999 2.73807 8.52601 3.09674 7.98458 2.747Z" fill="#F8C92A"/>
<path d="M8.80301 0.935251C8.37615 0.336469 8.01399 0.0674744 7.03125 0.0106738C7.08739 2.35204 7.52681 2.45158 7.98431 2.74718C8.52573 3.09691 9.18971 2.73824 9.18971 2.73824L9.2411 2.69664C9.25708 2.25306 9.21141 1.50839 8.80301 0.935251Z" fill="#F2AE0D"/>
<path d="M9.22365 2.90881C9.06169 3.15121 8.88623 3.40729 8.41408 3.54198C7.29812 3.86017 5.59164 3.86017 4.47587 3.54198C4.00353 3.40729 3.82807 3.15121 3.66611 2.90881C3.57172 2.9223 3.36029 2.91774 3.36029 2.91774L3.36923 3.83833L4.16548 3.97301C4.16548 3.97301 4.50232 4.43787 6.00327 4.50284C6.12812 4.50816 6.73976 4.50721 6.88972 4.49828C8.31759 4.41412 8.72428 3.97301 8.72428 3.97301L9.52052 3.83833L9.52947 2.91774C9.52947 2.91774 9.31804 2.9223 9.22365 2.90881Z" fill="#F2AE0D"/>
<path d="M5.3741 0.0764027C5.38361 0.39498 5.38514 1.00212 5.28808 1.48578C5.23346 1.75858 5.0795 1.67917 5.03554 1.55474C4.91451 1.21241 4.84961 0.549618 4.84333 0.245287C4.53599 0.393273 4.31066 0.614392 4.08667 0.9286C3.66971 1.5137 3.6307 2.27833 3.64973 2.71773L3.67485 2.73824C3.67485 2.73824 4.33883 3.09691 4.88044 2.74718C5.33737 2.45196 5.77622 2.35204 5.83312 0.0180857C5.66393 0.0306234 5.51207 0.0499971 5.3741 0.0764027Z" fill="#F2AE0D"/>
<path d="M5.28819 1.48591C5.38525 1.00225 5.38373 0.39511 5.37421 0.0765318C5.16982 0.115855 4.99645 0.171709 4.84344 0.245417C4.84972 0.549747 4.91462 1.21254 5.03566 1.55487C5.07962 1.6793 5.23358 1.7587 5.28819 1.48591Z" fill="#F8C92A"/>
<path d="M7.65164 1.48591C7.55477 1.00225 7.55629 0.39511 7.56581 0.0765318C7.7702 0.115855 7.94338 0.171709 8.09658 0.245417C8.0903 0.549747 8.0254 1.21254 7.90437 1.55487C7.86041 1.6793 7.70645 1.7587 7.65164 1.48591Z" fill="#F8C92A"/>
<path d="M10.8316 12.9201C11.1761 12.4463 11.559 10.7341 11.559 10.7341L10.487 12.5188L9.88293 20.4407C10.1254 20.3718 10.3661 20.2954 10.6076 20.2103C10.6714 20.1879 10.7359 20.167 10.7993 20.1434C10.7993 20.1429 10.7993 20.1421 10.7991 20.1413C10.8232 20.1326 10.8503 20.1216 10.8752 20.1123C10.8541 18.1632 10.8076 13.5965 10.8316 12.9201Z" fill="#375091"/>
<path d="M1.35278 10.7341C1.35278 10.7341 1.73568 12.4463 2.08014 12.9201C2.10659 13.6651 2.09898 18.7513 2.09631 20.1362C2.10031 20.1375 2.10488 20.1394 2.10887 20.141C2.10887 20.1417 2.10887 20.1423 2.10887 20.1429C2.40099 20.2559 2.72337 20.3604 3.09219 20.4611L2.42478 12.5188L1.35278 10.7341Z" fill="#4E63AB"/>
<path d="M12.7254 13.4382C12.5779 12.3558 12.348 11.4719 11.9737 11.0047C11.8087 10.799 11.4874 10.5511 11.0945 10.2933C10.9877 10.2232 10.8754 10.1523 10.7597 10.0813C10.4419 9.88637 10.0965 9.69071 9.75774 9.50681C9.57524 9.40765 9.39483 9.31229 9.22146 9.22205L6.45212 11.5442L6.44736 11.5387V12.2663V13.3755V14.48V16.0157V17.1202V20.919C6.44622 20.919 6.44527 20.919 6.44431 20.919C6.44165 20.919 6.43917 20.9188 6.43689 20.9188V20.9224C6.5349 20.9205 6.62834 20.9156 6.72406 20.9122C7.05767 20.904 7.38957 20.8825 7.71918 20.8468C8.48593 20.7706 9.19082 20.6377 9.88316 20.4407L10.4872 12.5188L11.5592 10.734C11.5592 10.734 11.1763 12.4462 10.8318 12.92C10.8079 13.5965 10.8543 18.1631 10.8754 20.1122C11.4926 19.8812 12.345 19.4576 12.8148 19.1798C12.8441 18.5725 12.7701 13.7665 12.7254 13.4382Z" fill="#4E63AB"/>
<path d="M6.44274 11.5336L4.1916 8.95496C3.88292 9.10979 3.52001 9.29653 3.14853 9.49809C2.81016 9.6814 2.46475 9.87688 2.14618 10.0718C2.02495 10.1459 1.90716 10.22 1.79564 10.2933C1.40265 10.5511 1.08123 10.799 0.91642 11.0047C0.559404 11.4502 0.333697 12.2745 0.185638 13.2887C0.129688 13.6711 0.0366278 18.5531 0.0663157 19.1683C0.485562 19.4108 1.21292 19.7754 1.79564 20.018V20.0216C1.82951 20.0351 1.86453 20.0469 1.89859 20.0602C1.96767 20.0879 2.03295 20.1128 2.09613 20.1361C2.0988 18.7513 2.10641 13.6651 2.07995 12.92C1.7355 12.4462 1.3526 10.734 1.3526 10.734L2.4246 12.5188L3.092 20.461C3.32056 20.5233 3.56644 20.5841 3.83439 20.6445C4.8139 20.8649 5.82995 20.9224 6.4357 20.9196V20.9188C6.43608 20.9188 6.43646 20.9188 6.43684 20.9188C6.43912 20.9188 6.4416 20.919 6.44426 20.919C6.44521 20.919 6.44616 20.919 6.4473 20.919V17.1202V16.0157V14.48V13.3755V12.2663V11.5387L6.44274 11.5336Z" fill="#6F80C5"/>
<path d="M8.12358 8.67187C7.93308 8.57992 7.84535 8.52502 7.84535 8.52502C7.84535 8.52502 7.28376 9.42585 6.44489 9.43516C6.44565 9.43516 6.44641 9.43535 6.44717 9.43535V9.82726V11.5385L6.45192 11.544L9.22127 9.22183C8.92039 9.06529 8.64121 8.92529 8.41266 8.81263C8.30323 8.75887 8.20694 8.71214 8.12358 8.67187Z" fill="#B0B0AE"/>
<path d="M6.44501 9.43536C5.60614 9.42605 5.07271 8.52598 5.07271 8.52598C5.07271 8.52598 4.95682 8.58012 4.76632 8.67207C4.68277 8.71234 4.58667 8.75907 4.47724 8.81283C4.38894 8.85634 4.29321 8.90383 4.19159 8.95493L6.44273 11.5336L6.4473 11.5387V9.82746V9.43555C6.44653 9.43555 6.44578 9.43536 6.44501 9.43536Z" fill="#CDCCCA"/>
<path d="M6.45203 9.43274C5.61183 9.42495 5.07745 8.52317 5.07745 8.52317C5.07745 8.52317 4.96155 8.57731 4.77106 8.66926C4.93339 8.9242 5.48375 9.82047 6.45203 9.82465V9.43274Z" fill="#959595"/>
<path d="M6.44763 9.43274C7.28784 9.42495 7.83611 8.50892 7.83611 8.50892C7.83611 8.50892 7.93812 8.57731 8.12861 8.66926C7.96628 8.9242 7.41591 9.82047 6.44763 9.82465V9.43274Z" fill="#7A7B7C"/>
<path d="M6.44639 11.2592C6.00963 10.7277 5.01566 9.87303 4.90167 9.51493C4.82117 9.26266 4.90452 8.73245 5.07675 8.52615C5.09977 8.1994 5.11405 7.94427 5.11405 7.94427C5.11405 7.94427 3.81273 8.7731 3.58855 9.09833C3.3362 9.4644 3.32821 10.0615 3.12915 10.7799C3.69569 10.8257 4.01351 10.7493 4.58005 10.3519C5.29694 10.6278 6.25532 11.5126 6.44639 11.6931V11.2592Z" fill="#ABB3DD"/>
<path d="M6.44452 11.2592C6.88127 10.7277 7.87505 9.87303 7.98924 9.51493C8.06955 9.26266 8.01132 8.71535 7.8389 8.50886C7.81606 8.18211 7.79969 7.95187 7.79969 7.95187C7.79969 7.95187 9.07817 8.7731 9.30235 9.09833C9.5547 9.4644 9.5627 10.0615 9.76176 10.7799C9.19521 10.8257 8.8774 10.7493 8.31086 10.3519C7.59397 10.6278 6.6354 11.5126 6.44452 11.6931V11.2592Z" fill="#6F80C5"/>
<path d="M8.62677 14.3417L7.35571 13.7913V13.4091C7.35571 13.3079 7.43793 13.2258 7.53936 13.2258H9.72922C9.83065 13.2258 9.91306 13.3079 9.91306 13.4091V13.7761L8.62677 14.3417Z" fill="#6F80C5"/>
<path d="M4.15497 14.3417L2.88391 13.7913V13.4091C2.88391 13.3079 2.96613 13.2258 3.06775 13.2258H5.25761C5.35904 13.2258 5.44126 13.3079 5.44126 13.4091V13.7761L4.15497 14.3417Z" fill="#ABB3DD"/>
<path d="M7.40004 7.69193C7.0847 7.8572 6.75052 7.96852 6.42643 7.9575C6.10234 7.96852 5.76816 7.8572 5.45282 7.69193C5.44483 7.4387 5.46557 6.92427 5.66406 6.82073C6.06428 6.61177 6.86489 6.64786 7.1888 6.82073C7.38634 6.92617 7.40803 7.4387 7.40004 7.69193ZM7.73384 7.5392C7.70948 7.34448 7.65429 6.88266 7.53516 6.63722C7.33838 6.23183 6.69419 6.29072 6.43309 6.29604C5.98339 6.30497 5.51429 6.23183 5.3177 6.63722C5.19857 6.88266 5.14319 7.34448 5.11902 7.5392C4.44191 7.09125 3.92542 6.01051 3.92542 6.01051C3.92542 6.01051 3.99069 7.14159 4.5304 7.89596C5.26708 8.92559 6.10158 9.00196 6.42643 8.98752C6.75109 9.00196 7.58559 8.92559 8.32246 7.89596C8.86217 7.14159 8.93296 6.07169 8.93296 6.07169C8.93296 6.07169 8.41095 7.09125 7.73384 7.5392Z" fill="#7D3F1A"/>
</svg>
